<?xml version="1.0" standalone="no"?>
<!DOCTYPE svg PUBLIC "-//W3C//DTD SVG 20010904//EN"
 "http://www.w3.org/TR/2001/REC-SVG-20010904/DTD/svg10.dtd">
<svg version="1.0" xmlns="http://www.w3.org/2000/svg"
 width="174.000000pt" height="174.000000pt" viewBox="0 0 174.000000 174.000000"
 preserveAspectRatio="xMidYMid meet">
<metadata>
Created by potrace 1.14, written by Peter Selinger 2001-2017
</metadata>
<g transform="translate(0.000000,174.000000) scale(0.100000,-0.100000)"
fill="#000000" stroke="none">
<path d="M759 1736 c-2 -3 -24 -7 -49 -11 -207 -30 -444 -187 -569 -379 -200
-307 -183 -721 39 -947 166 -169 386 -193 670 -71 119 50 188 94 258 161 133
128 205 295 211 486 l1 70 -132 90 c-73 50 -174 118 -225 153 l-93 64 -158
-109 c-86 -59 -188 -128 -225 -153 l-68 -45 5 -97 c10 -169 73 -318 187 -439
l56 -60 54 21 c30 12 57 25 61 28 4 4 -13 23 -37 43 -114 93 -182 218 -203
377 l-9 63 169 115 168 115 147 -101 c204 -138 187 -123 184 -173 -6 -106 -57
-234 -129 -321 -53 -64 -117 -109 -237 -166 -269 -129 -473 -108 -602 62 -45
58 -71 106 -84 152 -7 23 -5 34 8 49 11 11 18 35 18 59 0 33 -6 45 -32 67 -28
23 -30 31 -28 75 4 69 13 112 37 187 l21 66 76 -1 c65 -1 82 3 121 26 95 56
134 164 96 270 -13 37 -13 38 19 58 169 104 413 132 605 69 153 -50 285 -142
374 -261 l28 -37 -26 -54 c-52 -105 -1 -210 112 -233 25 -5 31 -12 36 -43 6
-40 1 -189 -9 -234 -50 -239 -240 -448 -496 -546 -247 -95 -567 -88 -771 15
-27 14 -48 21 -48 18 0 -25 147 -124 228 -154 183 -69 437 -72 626 -9 303 103
534 377 581 693 3 22 6 84 6 137 1 383 -261 723 -641 829 -52 15 -113 23 -201
25 -70 3 -128 3 -130 1z m-328 -288 c17 -31 14 -109 -4 -145 -23 -43 -81 -91
-120 -98 -43 -8 -100 -3 -104 10 -8 26 179 255 208 255 5 0 14 -10 20 -22z
m1131 -293 c33 -79 41 -115 27 -115 -29 0 -79 35 -93 65 -20 42 -20 68 0 111
15 32 18 33 29 17 7 -10 24 -45 37 -78z m-1422 -395 c0 -20 -2 -22 -10 -10 -5
8 -10 26 -10 40 0 20 2 22 10 10 5 -8 10 -26 10 -40z"/>
<path d="M835 1017 c-22 -38 -25 -56 -25 -130 0 -63 -3 -87 -12 -87 -18 0 -74
-47 -67 -54 3 -4 69 -5 145 -4 l139 3 -45 33 -45 33 -2 82 c-1 64 -6 91 -25
125 -12 23 -26 42 -30 42 -4 0 -19 -20 -33 -43z"/>
<path d="M1385 705 c-32 -31 -32 -75 -2 -111 34 -39 81 -37 118 4 24 27 27 35
19 64 -19 67 -89 90 -135 43z m94 -37 c10 -26 -7 -61 -32 -66 -9 -2 -25 6 -36
17 -18 18 -19 25 -9 46 15 34 65 35 77 3z"/>
<path d="M820 687 c0 -24 3 -27 14 -18 11 9 15 3 21 -36 l8 -48 9 35 c16 64
18 66 28 50 9 -13 10 -13 11 0 0 8 2 23 4 33 3 15 -4 17 -46 16 -47 -2 -49 -3
-49 -32z"/>
</g>
</svg>
