<svg width="150" height="40" viewBox="0 0 150 40" fill="none" xmlns="http://www.w3.org/2000/svg">
<path d="M2.27547 11.3116V28.6879L0 30.0015V9.99805L2.27547 11.3116Z" fill="white"/>
<path d="M34.643 9.99828L32.3675 11.3118L17.3184 2.63058V0L34.643 9.99828Z" fill="white"/>
<path d="M34.643 30.002L17.3184 40.0003V37.3697L32.3675 28.6885L34.643 30.002Z" fill="white"/>
<path d="M17.3177 37.3697V40.0003L0 30.002L2.27547 28.6885L17.3177 37.3697Z" fill="white" fill-opacity="0.3"/>
<path d="M34.6427 9.99805V30.0015L32.3672 28.6879V11.3116L34.6427 9.99805Z" fill="white" fill-opacity="0.3"/>
<path d="M17.3177 0V2.63058L2.27547 11.3118L0 9.99828L17.3177 0Z" fill="white" fill-opacity="0.3"/>
<path fill-rule="evenodd" clip-rule="evenodd" d="M17.3137 11.0498L23.2782 12.8495C23.3656 12.8836 23.4373 12.9488 23.4794 13.0326C23.5215 13.1165 23.531 13.2129 23.5062 13.3034C23.4813 13.3938 23.4238 13.4719 23.3448 13.5224C23.2657 13.5729 23.1708 13.5924 23.0782 13.577L17.3309 11.8531L11.6009 13.577C11.5044 13.6094 11.399 13.6022 11.3078 13.557C11.2167 13.5117 11.1472 13.4321 11.1148 13.3356C11.0823 13.2391 11.0895 13.1337 11.1348 13.0426C11.18 12.9514 11.2596 12.882 11.3561 12.8495L17.3137 11.0498Z" fill="white"/>
<path fill-rule="evenodd" clip-rule="evenodd" d="M25.9166 13.9115C25.9031 13.8307 25.8645 13.7562 25.8063 13.6986C25.7481 13.641 25.6732 13.6032 25.5922 13.5906C25.5113 13.578 25.4285 13.5912 25.3555 13.6284C25.2825 13.6656 25.2231 13.7248 25.1857 13.7977L21.738 20.5379H12.9154L9.46771 13.7977C9.43117 13.7293 9.37554 13.673 9.3076 13.6357C9.23966 13.5983 9.16233 13.5816 9.08502 13.5874C9.00015 13.5966 8.9206 13.6332 8.8584 13.6917C8.7962 13.7502 8.75472 13.8273 8.74025 13.9115C8.42759 16.0966 8.5447 18.3218 9.08502 20.4621C9.93315 23.8339 12.0742 27.747 17.1733 30.2328L17.3388 30.3121L17.5077 30.2328C22.5999 27.747 24.7478 23.8339 25.596 20.4655C26.1294 18.3227 26.2383 16.0961 25.9166 13.9115V13.9115ZM9.79869 20.2793C9.39421 18.6328 9.24078 16.9346 9.34359 15.2423L12.35 21.1033L16.4217 28.9951C14.7743 28.0802 13.335 26.833 12.1949 25.3327C11.0548 23.8324 10.2388 22.1116 9.79869 20.2793V20.2793ZM17.3146 29.0675L13.3084 21.3136H21.3553L17.3146 29.0675ZM24.8375 20.2793C24.3941 22.1098 23.5764 23.8286 22.436 25.3275C21.2955 26.8263 19.857 28.0727 18.211 28.9882L22.2965 21.0895L25.2995 15.2285C25.4046 16.9258 25.2487 18.6292 24.8375 20.2793V20.2793Z" fill="white"/>
<path fill-rule="evenodd" clip-rule="evenodd" d="M45.2263 21.0619C45.4227 21.2623 45.6579 21.4207 45.9175 21.5274C46.1771 21.6341 46.4557 21.6869 46.7363 21.6824H57.3483V20.2448H46.7363C46.6449 20.2481 46.5537 20.2326 46.4685 20.1992C46.3833 20.1657 46.306 20.115 46.2412 20.0503C46.1765 19.9856 46.1259 19.9082 46.0924 19.823C46.0589 19.7379 46.0434 19.6467 46.0468 19.5552V11.0325C46.0453 10.9435 46.0619 10.8551 46.0957 10.7727C46.1295 10.6903 46.1797 10.6156 46.2433 10.5533C46.3077 10.4867 46.3848 10.4338 46.4701 10.3976C46.5554 10.3615 46.6472 10.3429 46.7398 10.343H57.3483V8.90188H46.7363C46.4564 8.90051 46.179 8.95458 45.9202 9.06095C45.6613 9.16733 45.426 9.32391 45.2279 9.52167C45.0298 9.71943 44.8729 9.95445 44.7661 10.2132C44.6593 10.4719 44.6048 10.7492 44.6057 11.0291V19.5552C44.6017 19.8353 44.6547 20.1132 44.7614 20.3722C44.868 20.6312 45.0262 20.8658 45.2263 21.0619V21.0619ZM65.5676 8.90533V21.6824H77.2311V20.2448H67.0087V16.0213H75.2211V14.5664H67.0087V10.343H77.2311V8.90188L65.5676 8.90533ZM85.4366 21.6824V8.92601H96.0865C96.6502 8.93052 97.1895 9.15645 97.5881 9.55505C97.9867 9.95366 98.2126 10.493 98.2171 11.0567V14.7974C98.2198 15.0778 98.1662 15.3559 98.0596 15.6153C97.953 15.8746 97.7956 16.11 97.5966 16.3075C97.4001 16.508 97.1649 16.6664 96.9053 16.7731C96.6457 16.8798 96.3671 16.9325 96.0865 16.9281H94.1351L98.1447 21.6583H96.2451L92.2561 16.9281L86.8777 16.9074V21.6824H85.4366ZM87.5672 15.4766H96.0865C96.1754 15.4776 96.2637 15.4606 96.346 15.4269C96.4283 15.3931 96.503 15.3432 96.5657 15.2801C96.6295 15.2179 96.6798 15.1433 96.7136 15.0608C96.7474 14.9784 96.764 14.8899 96.7622 14.8009V11.0532C96.764 10.9642 96.7474 10.8757 96.7136 10.7933C96.6798 10.7108 96.6295 10.6362 96.5657 10.574C96.506 10.5059 96.4322 10.4515 96.3495 10.4146C96.2668 10.3777 96.177 10.3592 96.0865 10.3603H87.5672C87.4744 10.3606 87.3825 10.3797 87.2972 10.4165C87.2119 10.4532 87.1349 10.5068 87.0708 10.574C87.0081 10.6369 86.9587 10.7117 86.9256 10.794C86.8924 10.8763 86.8761 10.9645 86.8777 11.0532V14.7974C86.8761 14.8862 86.8924 14.9743 86.9256 15.0566C86.9587 15.139 87.0081 15.2138 87.0708 15.2766C87.2057 15.4021 87.383 15.4723 87.5672 15.4732V15.4766ZM111.473 10.343V21.6824H112.915V10.343H118.579V8.90188H105.799V10.3396L111.473 10.343ZM126.164 8.90188H127.619V21.679H126.164V8.90188ZM136.383 8.90188V21.679H137.838V16.0213H141.954L146.712 21.6824H148.574L143.22 15.2939L148.574 8.92257H146.729L141.972 14.5837H137.841V8.90188H136.383Z" fill="white"/>
<path d="M48.8508 30.3811H48.375V30.2156C48.3732 30.1552 48.3482 30.0979 48.3052 30.0555C48.2621 30.0131 48.2044 29.9889 48.144 29.9881H45.3272C45.2672 29.989 45.2098 30.0132 45.1673 30.0557C45.1248 30.0982 45.1006 30.1556 45.0997 30.2156V31.1603C45.1006 31.22 45.125 31.277 45.1675 31.319C45.2101 31.3609 45.2675 31.3844 45.3272 31.3844H48.144C48.236 31.3821 48.3275 31.3982 48.4132 31.4318C48.4988 31.4655 48.5769 31.5159 48.6427 31.5802C48.7086 31.6444 48.761 31.7212 48.7967 31.806C48.8324 31.8908 48.8508 31.9819 48.8508 32.0739V33.0358C48.8508 33.1279 48.8324 33.219 48.7967 33.3038C48.761 33.3886 48.7086 33.4653 48.6427 33.5296C48.5769 33.5939 48.4988 33.6443 48.4132 33.6779C48.3275 33.7115 48.236 33.7277 48.144 33.7254H45.3272C45.1444 33.7254 44.969 33.6527 44.8397 33.5234C44.7103 33.3941 44.6377 33.2187 44.6377 33.0358V32.8703H45.1135V33.0358C45.1144 33.0959 45.1386 33.1533 45.1811 33.1958C45.2236 33.2382 45.281 33.2625 45.341 33.2634H48.1578C48.2182 33.2625 48.2759 33.2384 48.319 33.196C48.362 33.1536 48.387 33.0962 48.3888 33.0358V32.0877C48.387 32.028 48.3617 31.9713 48.3185 31.93C48.2753 31.8888 48.2175 31.8661 48.1578 31.8671H45.341C45.249 31.8671 45.1579 31.8487 45.0731 31.813C44.9883 31.7773 44.9115 31.7249 44.8473 31.6591C44.783 31.5932 44.7326 31.5151 44.6989 31.4295C44.6653 31.3438 44.6492 31.2523 44.6515 31.1603V30.2156C44.6515 30.0328 44.7241 29.8574 44.8534 29.7281C44.9828 29.5987 45.1581 29.5261 45.341 29.5261H48.1578C48.2498 29.5238 48.3413 29.5399 48.427 29.5736C48.5126 29.6072 48.5907 29.6576 48.6565 29.7219C48.7224 29.7861 48.7747 29.8629 48.8105 29.9477C48.8462 30.0325 48.8646 30.1236 48.8646 30.2156L48.8508 30.3811Z" fill="white"/>
<path d="M48.1428 33.7526H45.3261C45.2313 33.7539 45.1373 33.7364 45.0495 33.7009C44.9617 33.6654 44.8818 33.6126 44.8147 33.5458C44.7475 33.479 44.6945 33.3994 44.6585 33.3118C44.6226 33.2241 44.6046 33.1302 44.6055 33.0354V32.8527H45.1123V33.0354C45.114 33.0916 45.1371 33.145 45.1768 33.1847C45.2166 33.2244 45.2699 33.2475 45.3261 33.2492H48.1428C48.1992 33.2483 48.2531 33.2255 48.293 33.1856C48.3329 33.1457 48.3557 33.0919 48.3566 33.0354V32.0873C48.3548 32.0318 48.3315 31.9792 48.2916 31.9406C48.2517 31.902 48.1983 31.8804 48.1428 31.8805H45.3261C45.135 31.8805 44.9517 31.8046 44.8165 31.6694C44.6814 31.5343 44.6055 31.351 44.6055 31.1599V30.2152C44.6046 30.1205 44.6226 30.0266 44.6585 29.9389C44.6945 29.8513 44.7475 29.7717 44.8147 29.7049C44.8818 29.638 44.9617 29.5853 45.0495 29.5498C45.1373 29.5143 45.2313 29.4967 45.3261 29.4981H48.1428C48.2375 29.4967 48.3316 29.5143 48.4194 29.5498C48.5072 29.5853 48.5871 29.638 48.6542 29.7049C48.7213 29.7717 48.7744 29.8513 48.8104 29.9389C48.8463 30.0266 48.8643 30.1205 48.8634 30.2152V30.3945H48.3566V30.2152C48.3557 30.1588 48.3329 30.105 48.293 30.0651C48.2531 30.0252 48.1992 30.0024 48.1428 30.0015H45.3261C45.2699 30.0032 45.2166 30.0263 45.1768 30.066C45.1371 30.1057 45.114 30.1591 45.1123 30.2152V31.1599C45.1141 31.2157 45.1373 31.2687 45.1771 31.3079C45.2169 31.347 45.2702 31.3694 45.3261 31.3702H48.1428C48.2373 31.3698 48.3309 31.388 48.4183 31.4238C48.5057 31.4596 48.5852 31.5124 48.6521 31.579C48.7191 31.6457 48.7722 31.7249 48.8085 31.8121C48.8447 31.8993 48.8634 31.9929 48.8634 32.0873V33.0354C48.8643 33.1302 48.8463 33.2241 48.8104 33.3118C48.7744 33.3994 48.7213 33.479 48.6542 33.5458C48.5871 33.6126 48.5072 33.6654 48.4194 33.7009C48.3316 33.7364 48.2375 33.7539 48.1428 33.7526ZM44.6365 32.8837V33.0354C44.6365 33.2183 44.7092 33.3937 44.8385 33.523C44.9678 33.6523 45.1432 33.725 45.3261 33.725H48.1428C48.3257 33.725 48.5011 33.6523 48.6304 33.523C48.7597 33.3937 48.8324 33.2183 48.8324 33.0354V32.0873C48.8324 31.9045 48.7597 31.7291 48.6304 31.5998C48.5011 31.4704 48.3257 31.3978 48.1428 31.3978H45.3261C45.262 31.3969 45.2008 31.3713 45.1551 31.3264C45.1095 31.2814 45.0831 31.2205 45.0813 31.1565V30.2118C45.083 30.1474 45.1094 30.0862 45.1549 30.0406C45.2004 29.9951 45.2617 29.9687 45.3261 29.967H48.1428C48.2075 29.9679 48.2692 29.994 48.3149 30.0397C48.3606 30.0854 48.3867 30.1471 48.3876 30.2118V30.3635H48.8324V30.2118C48.8324 30.0289 48.7597 29.8535 48.6304 29.7242C48.5011 29.5949 48.3257 29.5223 48.1428 29.5223H45.3261C45.1432 29.5223 44.9678 29.5949 44.8385 29.7242C44.7092 29.8535 44.6365 30.0289 44.6365 30.2118V31.1565C44.6365 31.3393 44.7092 31.5147 44.8385 31.644C44.9678 31.7733 45.1432 31.846 45.3261 31.846H48.1428C48.2066 31.846 48.2678 31.8708 48.3135 31.9152C48.3592 31.9597 48.3858 32.0202 48.3876 32.0839V33.0354C48.3867 33.0998 48.3605 33.1611 48.3147 33.2063C48.2689 33.2515 48.2072 33.2768 48.1428 33.2768H45.3261C45.262 33.2759 45.2008 33.2503 45.1551 33.2053C45.1095 33.1604 45.0831 33.0995 45.0813 33.0354V32.8837H44.6365Z" fill="white"/>
<path d="M54.2291 29.988H50.8469V31.3843H53.5636V31.867H50.8469V33.246H54.2291V33.7253H50.3711V29.5122H54.2291V29.988Z" fill="white"/>
<path d="M54.242 33.7525H50.3564V29.498H54.242V30.0014H50.8598V31.3805H53.58V31.8907H50.8598V33.2698H54.242V33.7525ZM50.3875 33.7249H54.211V33.2767H50.8288V31.8494H53.549V31.4012H50.8288V29.9704H54.211V29.5256H50.3875V33.7249Z" fill="white"/>
<path d="M56.4415 29.9879C56.3811 29.9887 56.3233 30.0129 56.2803 30.0553C56.2373 30.0977 56.2123 30.155 56.2105 30.2154V33.0356C56.2123 33.096 56.2373 33.1534 56.2803 33.1958C56.3233 33.2382 56.3811 33.2623 56.4415 33.2632H59.9685V33.7252H56.4415C56.2586 33.7252 56.0832 33.6525 55.9539 33.5232C55.8246 33.3939 55.752 33.2185 55.752 33.0356V30.2154C55.752 30.0325 55.8246 29.8572 55.9539 29.7278C56.0832 29.5985 56.2586 29.5259 56.4415 29.5259H59.9685V30.0017L56.4415 29.9879Z" fill="white"/>
<path d="M59.9693 33.7526H56.4423C56.3476 33.7539 56.2535 33.7364 56.1657 33.7009C56.0779 33.6654 55.9981 33.6126 55.9309 33.5458C55.8638 33.479 55.8107 33.3994 55.7747 33.3118C55.7388 33.2241 55.7208 33.1302 55.7217 33.0354V30.2152C55.7208 30.1205 55.7388 30.0266 55.7747 29.9389C55.8107 29.8513 55.8638 29.7717 55.9309 29.7049C55.9981 29.638 56.0779 29.5853 56.1657 29.5498C56.2535 29.5143 56.3476 29.4967 56.4423 29.4981H59.9693V30.0015H56.4423C56.3859 30.0024 56.332 30.0252 56.2921 30.0651C56.2522 30.105 56.2294 30.1588 56.2285 30.2152V33.0354C56.2294 33.0919 56.2522 33.1457 56.2921 33.1856C56.332 33.2255 56.3859 33.2483 56.4423 33.2492H59.9693V33.7526ZM56.4423 29.5257C56.2594 29.5257 56.084 29.5984 55.9547 29.7277C55.8254 29.857 55.7527 30.0324 55.7527 30.2152V33.0354C55.7527 33.2183 55.8254 33.3937 55.9547 33.523C56.084 33.6523 56.2594 33.725 56.4423 33.725H59.9382V33.2768H56.4423C56.378 33.2768 56.3162 33.2515 56.2704 33.2063C56.2246 33.1611 56.1984 33.0998 56.1975 33.0354V30.2152C56.1984 30.1506 56.2245 30.0889 56.2702 30.0431C56.3159 29.9974 56.3776 29.9713 56.4423 29.9705H59.9382V29.5257H56.4423Z" fill="white"/>
<path d="M65.181 29.5122H65.6568V33.0357C65.6568 33.2186 65.5841 33.394 65.4548 33.5233C65.3255 33.6526 65.1501 33.7253 64.9672 33.7253H62.1505C61.9676 33.7253 61.7922 33.6526 61.6629 33.5233C61.5336 33.394 61.4609 33.2186 61.4609 33.0357V29.5122H61.9367V33.0357C61.9385 33.0961 61.9635 33.1535 62.0065 33.1959C62.0496 33.2383 62.1073 33.2624 62.1677 33.2633H64.9845C65.0445 33.2624 65.1019 33.2381 65.1444 33.1957C65.1869 33.1532 65.2111 33.0958 65.212 33.0357L65.181 29.5122Z" fill="white"/>
<path d="M64.9544 33.7525H62.1376C62.0429 33.7539 61.9488 33.7363 61.861 33.7008C61.7732 33.6653 61.6934 33.6126 61.6262 33.5457C61.5591 33.4789 61.506 33.3993 61.4701 33.3117C61.4341 33.224 61.4161 33.1301 61.417 33.0354V29.498H61.9238V33.0354C61.9256 33.0915 61.9486 33.1449 61.9884 33.1846C62.0281 33.2243 62.0814 33.2474 62.1376 33.2491H64.9544C65.0108 33.2482 65.0646 33.2254 65.1045 33.1855C65.1444 33.1456 65.1672 33.0918 65.1681 33.0354V29.498H65.6749V33.0354C65.6758 33.1301 65.6578 33.224 65.6219 33.3117C65.586 33.3993 65.5329 33.4789 65.4657 33.5457C65.3986 33.6126 65.3187 33.6653 65.2309 33.7008C65.1431 33.7363 65.0491 33.7539 64.9544 33.7525ZM61.4481 29.5256V33.0354C61.4481 33.2182 61.5207 33.3936 61.65 33.5229C61.7793 33.6523 61.9547 33.7249 62.1376 33.7249H64.9544C65.1372 33.7249 65.3126 33.6523 65.4419 33.5229C65.5712 33.3936 65.6439 33.2182 65.6439 33.0354V29.5256H65.1991V33.0354C65.1974 33.0994 65.1709 33.1603 65.1253 33.2053C65.0797 33.2502 65.0184 33.2758 64.9544 33.2767H62.1376C62.0733 33.2767 62.0115 33.2514 61.9657 33.2062C61.9199 33.1611 61.8937 33.0997 61.8928 33.0354V29.5256H61.4481Z" fill="white"/>
<path d="M71.4094 31.4603C71.4094 31.5523 71.391 31.6434 71.3553 31.7282C71.3195 31.813 71.2672 31.8898 71.2013 31.9541C71.1355 32.0183 71.0574 32.0688 70.9718 32.1024C70.8861 32.136 70.7946 32.1521 70.7026 32.1498H70.0579L71.3852 33.722H70.7577L69.4338 32.1498H67.8996C67.841 32.1498 67.7583 32.1498 67.6721 32.1257V33.7254H67.1963V29.5193H70.7164C70.8084 29.517 70.8999 29.5331 70.9855 29.5667C71.0712 29.6003 71.1493 29.6508 71.2151 29.715C71.281 29.7793 71.3333 29.8561 71.3691 29.9409C71.4048 30.0257 71.4232 30.1168 71.4231 30.2088L71.4094 31.4603ZM70.7026 31.6844C70.762 31.6844 70.819 31.6608 70.861 31.6188C70.9031 31.5767 70.9267 31.5197 70.9267 31.4603V30.2226C70.9267 30.1628 70.9032 30.1055 70.8613 30.0629C70.8193 30.0203 70.7623 29.9959 70.7026 29.995H67.8996C67.8395 29.9959 67.7822 30.0202 67.7397 30.0627C67.6972 30.1052 67.673 30.1625 67.6721 30.2226V31.4603C67.673 31.52 67.6973 31.577 67.7399 31.619C67.7825 31.6609 67.8399 31.6844 67.8996 31.6844H70.7026Z" fill="white"/>
<path d="M71.4153 33.7529H70.743L69.426 32.1842H67.8987C67.8306 32.1813 67.7626 32.1744 67.6953 32.1636V33.7564H67.1885V29.502H70.7258C70.9166 29.5029 71.0994 29.5791 71.2343 29.714C71.3692 29.8489 71.4455 30.0317 71.4464 30.2225V31.4602C71.4455 31.6511 71.3692 31.8338 71.2343 31.9688C71.0994 32.1037 70.9166 32.1799 70.7258 32.1808H70.1156L71.4153 33.7529ZM70.7637 33.7219H71.3464L70.019 32.1498H70.7086C70.8914 32.1498 71.0668 32.0771 71.1961 31.9478C71.3254 31.8185 71.3981 31.6431 71.3981 31.4602V30.2225C71.3981 30.0396 71.3254 29.8643 71.1961 29.7349C71.0668 29.6056 70.8914 29.533 70.7086 29.533H67.2092V33.7254H67.6539V32.1291H67.7022C67.7746 32.1291 67.847 32.1463 67.8987 32.1463H69.4571L70.7637 33.7219ZM70.7017 31.6981H67.8987C67.835 31.6982 67.7737 31.6733 67.728 31.6289C67.6823 31.5845 67.6557 31.524 67.6539 31.4602V30.2225C67.6557 30.1581 67.682 30.0969 67.7275 30.0514C67.7731 30.0058 67.8343 29.9795 67.8987 29.9777H70.7155C70.7792 29.9795 70.8397 30.0061 70.8841 30.0518C70.9285 30.0975 70.9534 30.1588 70.9533 30.2225V31.4602C70.9534 31.4927 70.9468 31.5248 70.934 31.5546C70.9212 31.5844 70.9024 31.6112 70.8789 31.6335C70.8553 31.6558 70.8274 31.673 70.7969 31.6841C70.7665 31.6952 70.734 31.7 70.7017 31.6981ZM67.8849 30.0088C67.8282 30.0088 67.7738 30.0313 67.7338 30.0714C67.6937 30.1115 67.6712 30.1658 67.6712 30.2225V31.4602C67.6716 31.4879 67.6775 31.5151 67.6885 31.5405C67.6995 31.5658 67.7153 31.5887 67.7352 31.6079C67.755 31.6272 67.7785 31.6423 67.8042 31.6524C67.8298 31.6626 67.8573 31.6676 67.8849 31.6671H70.7017C70.7565 31.6671 70.8091 31.6453 70.8479 31.6065C70.8867 31.5677 70.9085 31.5151 70.9085 31.4602V30.2225C70.909 30.1949 70.904 30.1675 70.8938 30.1418C70.8837 30.1161 70.8686 30.0926 70.8494 30.0728C70.8302 30.0529 70.8072 30.0371 70.7819 30.0261C70.7565 30.0151 70.7293 30.0092 70.7017 30.0088H67.8849Z" fill="white"/>
<path d="M72.915 29.5122H73.3908V33.7253H72.915V29.5122Z" fill="white"/>
<path d="M73.415 33.7525H72.9082V29.498H73.415V33.7525ZM72.9323 33.7249H73.3771V29.5256H72.9323V33.7249Z" fill="white"/>
<path d="M79.0994 29.5122V29.988H77.2239V33.7253H76.7481V29.988H74.8691V29.5122H79.0994Z" fill="white"/>
<path d="M77.2413 33.7525H76.7345V30.0014H74.8555V29.498H79.1134V30.0014H77.2413V33.7525ZM76.7655 33.7215H77.2068V29.9704H79.0789V29.5256H74.8865V29.9704H76.7655V33.7215Z" fill="white"/>
<path d="M84.5542 29.5118L82.6097 32.1459V33.7249H82.1339V32.1321C81.5065 31.2702 80.8307 30.36 80.1895 29.498H80.7376L82.3753 31.5667C82.8855 30.9116 83.4785 30.16 83.9957 29.498L84.5542 29.5118Z" fill="white"/>
<path d="M82.6233 33.7525H82.1199V32.1528C81.4959 31.2977 80.8305 30.4013 80.1892 29.5394L80.1582 29.498H80.7478L82.3785 31.5529L83.6507 29.9256L83.9955 29.498H84.5885V29.5222L82.6474 32.1528L82.6233 33.7525ZM82.1475 33.7215H82.5923V32.1424L84.5195 29.5291H83.9989L83.6542 29.9497C83.2232 30.5013 82.7715 31.0702 82.3682 31.5908L80.7374 29.5222H80.2272C80.8684 30.3875 81.5304 31.2805 82.1544 32.1355L82.1475 33.7215Z" fill="white"/>
<path d="M88.5156 29.5049H88.9914V33.2629H92.7425V33.7248H88.5156V29.5049Z" fill="white"/>
<path d="M92.7598 33.753H88.502V29.4917H89.0088V33.2497H92.7598V33.753ZM88.533 33.7255H92.7219V33.2773H88.9777V29.5227H88.533V33.7255Z" fill="white"/>
<path d="M97.8345 29.988H94.4454V31.3843H97.1622V31.867H94.4454V33.246H97.8276V33.7253H93.9766V29.5122H97.8345V29.988Z" fill="white"/>
<path d="M97.8489 33.7525H93.96V29.498H97.8489V30.0014H94.4668V31.3805H97.2042V31.8907H94.484V33.2698H97.8662L97.8489 33.7525ZM93.991 33.7249H97.8179V33.2767H94.4461V31.8494H97.1663V31.4012H94.4461V29.9704H97.8283V29.5256H94.0013L93.991 33.7249Z" fill="white"/>
<path d="M102.876 29.5124C102.968 29.5101 103.059 29.5263 103.145 29.5599C103.23 29.5935 103.308 29.6439 103.374 29.7082C103.44 29.7724 103.493 29.8492 103.528 29.934C103.564 30.0188 103.582 30.1099 103.582 30.202V33.7255H103.107V32.1809H99.8313V33.7255H99.3555V30.2158C99.3555 30.0329 99.4281 29.8575 99.5574 29.7282C99.6867 29.5989 99.8621 29.5262 100.045 29.5262L102.876 29.5124ZM103.107 31.7189V30.2158C103.105 30.1554 103.08 30.098 103.037 30.0556C102.994 30.0132 102.936 29.9891 102.876 29.9882H100.059C99.9987 29.9891 99.9414 30.0134 99.8989 30.0558C99.8564 30.0983 99.8321 30.1557 99.8313 30.2158V31.7189H103.107Z" fill="white"/>
<path d="M103.596 33.7526H103.089V32.2115H99.8447V33.7526H99.3379V30.2152C99.337 30.1205 99.355 30.0266 99.391 29.9389C99.4269 29.8513 99.48 29.7717 99.5471 29.7049C99.6143 29.638 99.6941 29.5853 99.7819 29.5498C99.8697 29.5143 99.9638 29.4967 100.058 29.4981H102.875C102.97 29.4967 103.064 29.5143 103.152 29.5498C103.24 29.5853 103.319 29.638 103.387 29.7049C103.454 29.7717 103.507 29.8513 103.543 29.9389C103.579 30.0266 103.597 30.1205 103.596 30.2152V33.7526ZM103.12 33.7215H103.565V30.2152C103.565 30.0324 103.492 29.857 103.363 29.7277C103.234 29.5984 103.058 29.5257 102.875 29.5257H100.058C99.8756 29.5257 99.7002 29.5984 99.5709 29.7277C99.4416 29.857 99.369 30.0324 99.369 30.2152V33.725H99.8137V32.1839H103.12V33.7215ZM103.12 31.7357H99.8137V30.2152C99.8154 30.1509 99.8418 30.0896 99.8873 30.0441C99.9329 29.9985 99.9941 29.9722 100.058 29.9705H102.875C102.94 29.9713 103.002 29.9974 103.047 30.0431C103.093 30.0889 103.119 30.1506 103.12 30.2152V31.7357ZM99.8447 31.7046H103.089V30.2152C103.088 30.1588 103.065 30.105 103.025 30.0651C102.986 30.0252 102.932 30.0024 102.875 30.0015H100.058C100.002 30.0032 99.949 30.0263 99.9093 30.066C99.8695 30.1057 99.8465 30.1591 99.8447 30.2152V31.7046Z" fill="white"/>
<path d="M108.669 29.5122C108.852 29.5122 109.027 29.5849 109.156 29.7142C109.286 29.8435 109.358 30.0189 109.358 30.2017V33.0357C109.358 33.2186 109.286 33.394 109.156 33.5233C109.027 33.6526 108.852 33.7253 108.669 33.7253H105.135V29.5122H108.669ZM108.896 30.2017C108.894 30.1419 108.87 30.0851 108.828 30.0428C108.785 30.0005 108.728 29.9759 108.669 29.9742H105.848C105.789 29.9759 105.732 30.0005 105.689 30.0428C105.647 30.0851 105.623 30.1419 105.621 30.2017V33.0357C105.623 33.0955 105.647 33.1524 105.689 33.1947C105.732 33.237 105.789 33.2616 105.848 33.2633H108.669C108.728 33.2616 108.785 33.237 108.828 33.1947C108.87 33.1524 108.894 33.0955 108.896 33.0357V30.2017Z" fill="white"/>
<path d="M108.669 33.7526H105.135V29.4981H108.672C108.767 29.4967 108.861 29.5143 108.948 29.5499C109.036 29.5854 109.115 29.6382 109.182 29.7051C109.249 29.7719 109.302 29.8515 109.337 29.9392C109.373 30.0268 109.391 30.1207 109.389 30.2152V33.0354C109.391 33.1303 109.373 33.2245 109.337 33.3123C109.301 33.4002 109.248 33.48 109.181 33.5469C109.114 33.6138 109.034 33.6665 108.946 33.7018C108.858 33.7372 108.763 33.7544 108.669 33.7526ZM105.159 33.725H108.669C108.852 33.725 109.027 33.6523 109.156 33.523C109.286 33.3937 109.358 33.2183 109.358 33.0354V30.2152C109.358 30.0324 109.286 29.857 109.156 29.7277C109.027 29.5984 108.852 29.5257 108.669 29.5257H105.159V33.725ZM108.669 33.2802H105.848C105.784 33.2794 105.723 33.2538 105.678 33.2088C105.632 33.1638 105.605 33.1029 105.604 33.0389V30.2187C105.605 30.1543 105.632 30.0931 105.677 30.0475C105.723 30.002 105.784 29.9756 105.848 29.9739H108.669C108.733 29.9756 108.794 30.002 108.84 30.0475C108.885 30.0931 108.912 30.1543 108.913 30.2187V33.0354C108.912 33.0995 108.885 33.1604 108.84 33.2053C108.794 33.2503 108.733 33.2759 108.669 33.2768V33.2802ZM105.848 30.0049C105.792 30.0067 105.739 30.0297 105.699 30.0695C105.659 30.1092 105.636 30.1625 105.635 30.2187V33.0354C105.636 33.0916 105.659 33.145 105.699 33.1847C105.739 33.2244 105.792 33.2475 105.848 33.2492H108.669C108.725 33.2475 108.778 33.2244 108.818 33.1847C108.858 33.145 108.881 33.0916 108.882 33.0354V30.2152C108.881 30.1591 108.858 30.1057 108.818 30.066C108.778 30.0263 108.725 30.0032 108.669 30.0015L105.848 30.0049Z" fill="white"/>
<path d="M114.788 29.988H111.409V31.3843H114.126V31.867H111.409V33.246H114.788V33.7253H110.923V29.5122H114.788V29.988Z" fill="white"/>
<path d="M114.786 33.7525H110.904V29.498H114.786V30.0014H111.404V31.3805H114.121V31.8907H111.404V33.2698H114.786V33.7525ZM110.935 33.7249H114.762V33.2767H111.38V31.8494H114.097V31.4012H111.377V29.9704H114.759V29.5256H110.932L110.935 33.7249Z" fill="white"/>
<path d="M120.51 31.4603C120.51 31.5523 120.492 31.6434 120.456 31.7282C120.42 31.813 120.368 31.8898 120.302 31.9541C120.236 32.0183 120.158 32.0688 120.072 32.1024C119.987 32.136 119.895 32.1521 119.803 32.1498H119.159L120.486 33.722H119.858L118.535 32.1498H116.987C116.928 32.1498 116.845 32.1498 116.759 32.1257V33.7254H116.283V29.5193H119.803C119.895 29.517 119.987 29.5331 120.072 29.5667C120.158 29.6003 120.236 29.6508 120.302 29.715C120.368 29.7793 120.42 29.8561 120.456 29.9409C120.492 30.0257 120.51 30.1168 120.51 30.2088V31.4603ZM119.803 31.6844C119.863 31.6844 119.92 31.6608 119.962 31.6188C120.004 31.5767 120.027 31.5197 120.027 31.4603V30.2226C120.027 30.1628 120.004 30.1055 119.962 30.0629C119.92 30.0203 119.863 29.9959 119.803 29.995H116.987C116.926 29.9959 116.869 30.0202 116.827 30.0627C116.784 30.1052 116.76 30.1625 116.759 30.2226V31.4603C116.76 31.52 116.784 31.577 116.827 31.619C116.869 31.6609 116.927 31.6844 116.987 31.6844H119.803Z" fill="white"/>
<path d="M120.518 33.7529H119.846L118.529 32.1842H116.988C116.919 32.1815 116.851 32.1746 116.784 32.1636V32.1636V33.7564H116.277V29.502H119.815C120.005 29.5029 120.188 29.5791 120.323 29.714C120.458 29.8489 120.534 30.0317 120.535 30.2225V31.4602C120.534 31.6511 120.458 31.8338 120.323 31.9688C120.188 32.1037 120.005 32.1799 119.815 32.1808H119.204L120.518 33.7529ZM119.866 33.7219H120.452L119.125 32.1498H119.815C119.998 32.1498 120.173 32.0771 120.302 31.9478C120.432 31.8185 120.504 31.6431 120.504 31.4602V30.2225C120.504 30.0396 120.432 29.8643 120.302 29.7349C120.173 29.6056 119.998 29.533 119.815 29.533H116.298V33.7254H116.743V32.1291H116.788C116.854 32.1399 116.921 32.1468 116.988 32.1498H118.546L119.866 33.7219ZM119.804 31.6981H116.988C116.956 31.6986 116.924 31.6928 116.895 31.6811C116.865 31.6694 116.839 31.652 116.816 31.6299C116.793 31.6078 116.775 31.5814 116.762 31.5523C116.75 31.5232 116.743 31.4919 116.743 31.4602V30.2225C116.744 30.1579 116.77 30.0961 116.815 30.0504C116.861 30.0047 116.923 29.9786 116.988 29.9777H119.804C119.868 29.9795 119.929 30.0061 119.973 30.0518C120.017 30.0975 120.042 30.1588 120.042 30.2225V31.4602C120.042 31.5233 120.017 31.5838 119.973 31.6285C119.928 31.6731 119.867 31.6981 119.804 31.6981ZM116.988 30.0088C116.931 30.0105 116.878 30.0336 116.838 30.0733C116.799 30.113 116.776 30.1664 116.774 30.2225V31.4602C116.774 31.4879 116.78 31.5151 116.791 31.5405C116.802 31.5658 116.818 31.5887 116.838 31.6079C116.858 31.6272 116.881 31.6423 116.907 31.6524C116.933 31.6626 116.96 31.6676 116.988 31.6671H119.804C119.859 31.6671 119.912 31.6453 119.951 31.6065C119.989 31.5677 120.011 31.5151 120.011 31.4602V30.2225C120.012 30.1949 120.007 30.1675 119.997 30.1418C119.986 30.1161 119.971 30.0926 119.952 30.0728C119.933 30.0529 119.91 30.0371 119.885 30.0261C119.859 30.0151 119.832 30.0092 119.804 30.0088H116.988Z" fill="white"/>
<path d="M126.023 31.5257C126.095 31.5928 126.153 31.6738 126.194 31.7638C126.234 31.8539 126.256 31.9511 126.258 32.0497V33.0357C126.258 33.2186 126.185 33.394 126.056 33.5233C125.926 33.6526 125.751 33.7253 125.568 33.7253H122.027V29.5122H125.368C125.551 29.5122 125.726 29.5849 125.856 29.7142C125.985 29.8435 126.058 30.0189 126.058 30.2017V31.1016C126.056 31.2094 126.03 31.3154 125.982 31.4119L126.023 31.5257ZM122.734 29.988C122.674 29.9889 122.617 30.0131 122.574 30.0556C122.532 30.0981 122.507 30.1555 122.507 30.2155V31.1154C122.507 31.1754 122.532 31.2328 122.574 31.2753C122.617 31.3178 122.674 31.342 122.734 31.3429H125.372C125.431 31.3411 125.487 31.3164 125.528 31.2739C125.569 31.2314 125.592 31.1746 125.592 31.1154V30.2155C125.592 30.1564 125.569 30.0995 125.528 30.057C125.487 30.0145 125.431 29.9898 125.372 29.988H122.734ZM125.782 32.0566C125.781 31.9956 125.756 31.9374 125.713 31.8942C125.67 31.8511 125.612 31.8265 125.551 31.8256H122.734C122.673 31.8265 122.616 31.8512 122.573 31.8945C122.53 31.9377 122.507 31.9959 122.507 32.0566V33.0357C122.507 33.0958 122.532 33.1532 122.574 33.1957C122.617 33.2381 122.674 33.2624 122.734 33.2633H125.551C125.611 33.2624 125.669 33.2383 125.712 33.1959C125.755 33.1535 125.78 33.0961 125.782 33.0357V32.0566Z" fill="white"/>
<path d="M125.551 33.7526H122.027V29.4981H125.385C125.48 29.4967 125.574 29.5143 125.661 29.5499C125.749 29.5854 125.829 29.6382 125.896 29.7051C125.962 29.7719 126.015 29.8515 126.051 29.9392C126.086 30.0268 126.104 30.1207 126.103 30.2152V31.1151C126.102 31.2237 126.077 31.3309 126.03 31.4288L126.051 31.5185C126.124 31.5864 126.182 31.6685 126.223 31.7598C126.263 31.8511 126.284 31.9496 126.285 32.0494V33.0354C126.286 33.1314 126.268 33.2265 126.231 33.3151C126.194 33.4037 126.14 33.4839 126.071 33.5509C126.003 33.6179 125.921 33.6703 125.832 33.705C125.742 33.7396 125.647 33.7558 125.551 33.7526V33.7526ZM122.045 33.725H125.551C125.734 33.725 125.909 33.6523 126.038 33.523C126.168 33.3937 126.24 33.2183 126.24 33.0354V32.0494C126.239 31.9529 126.218 31.8578 126.179 31.7696C126.139 31.6814 126.083 31.6018 126.013 31.5357V31.5357L125.989 31.4323C126.036 31.338 126.06 31.2342 126.061 31.1289V30.229C126.061 30.0462 125.988 29.8708 125.859 29.7415C125.73 29.6121 125.554 29.5395 125.372 29.5395H122.045V33.725ZM125.551 33.2802H122.734C122.67 33.2794 122.609 33.2538 122.563 33.2088C122.518 33.1638 122.491 33.1029 122.489 33.0389V32.0529C122.49 31.9882 122.516 31.9265 122.562 31.8808C122.608 31.835 122.669 31.809 122.734 31.8081H125.551C125.616 31.8081 125.678 31.8339 125.724 31.8798C125.77 31.9257 125.796 31.9879 125.796 32.0529V33.0354C125.795 33.0998 125.769 33.1611 125.723 33.2063C125.677 33.2515 125.615 33.2768 125.551 33.2768V33.2802ZM122.734 31.8391C122.678 31.8408 122.625 31.8639 122.585 31.9036C122.545 31.9433 122.522 31.9967 122.52 32.0529V33.0354C122.522 33.0916 122.545 33.145 122.585 33.1847C122.625 33.2244 122.678 33.2475 122.734 33.2492H125.551C125.607 33.2483 125.661 33.2255 125.701 33.1856C125.741 33.1457 125.764 33.0919 125.765 33.0354V32.0494C125.763 31.9933 125.74 31.9399 125.7 31.9002C125.66 31.8605 125.607 31.8374 125.551 31.8357L122.734 31.8391ZM125.372 31.3633H122.734C122.67 31.3616 122.608 31.3352 122.563 31.2897C122.517 31.2442 122.491 31.1829 122.489 31.1185V30.2187C122.491 30.1543 122.517 30.0931 122.563 30.0475C122.608 30.002 122.67 29.9756 122.734 29.9739H125.372C125.435 29.9765 125.495 30.0034 125.539 30.0489C125.584 30.0945 125.609 30.1552 125.609 30.2187V31.1185C125.608 31.1814 125.582 31.2413 125.538 31.2861C125.494 31.3309 125.434 31.3573 125.372 31.3599V31.3633ZM122.734 30.0049C122.678 30.0067 122.625 30.0297 122.585 30.0695C122.545 30.1092 122.522 30.1625 122.52 30.2187V31.1185C122.522 31.1747 122.545 31.228 122.585 31.2678C122.625 31.3075 122.678 31.3306 122.734 31.3323H125.372C125.427 31.3297 125.479 31.3061 125.517 31.2664C125.556 31.2267 125.578 31.1738 125.578 31.1185V30.2187C125.578 30.1634 125.556 30.1106 125.517 30.0708C125.479 30.0311 125.427 30.0076 125.372 30.0049H122.734Z" fill="white"/>
<path d="M131.287 29.5122C131.47 29.5122 131.645 29.5849 131.775 29.7142C131.904 29.8435 131.977 30.0189 131.977 30.2017V33.0357C131.977 33.2186 131.904 33.394 131.775 33.5233C131.645 33.6526 131.47 33.7253 131.287 33.7253H128.47C128.378 33.7276 128.287 33.7114 128.201 33.6778C128.116 33.6442 128.038 33.5938 127.972 33.5295C127.906 33.4653 127.853 33.3885 127.818 33.3037C127.782 33.2189 127.764 33.1278 127.764 33.0357V30.2155C127.764 30.1235 127.782 30.0324 127.818 29.9476C127.853 29.8628 127.906 29.786 127.972 29.7218C128.038 29.6575 128.116 29.6071 128.201 29.5735C128.287 29.5398 128.378 29.5237 128.47 29.526L131.287 29.5122ZM131.287 33.2633C131.348 33.2624 131.405 33.2383 131.448 33.1959C131.491 33.1535 131.516 33.0961 131.518 33.0357V30.2155C131.516 30.1552 131.491 30.0978 131.448 30.0554C131.405 30.013 131.348 29.9889 131.287 29.988H128.47C128.41 29.9889 128.352 30.013 128.309 30.0554C128.266 30.0978 128.241 30.1552 128.239 30.2155V33.0357C128.241 33.0961 128.266 33.1535 128.309 33.1959C128.352 33.2383 128.41 33.2624 128.47 33.2633H131.287Z" fill="white"/>
<path d="M131.287 33.7526H128.471C128.376 33.7539 128.282 33.7364 128.194 33.7009C128.106 33.6654 128.026 33.6126 127.959 33.5458C127.892 33.479 127.839 33.3994 127.803 33.3118C127.767 33.2241 127.749 33.1302 127.75 33.0354V30.2152C127.749 30.1205 127.767 30.0266 127.803 29.9389C127.839 29.8513 127.892 29.7717 127.959 29.7049C128.026 29.638 128.106 29.5853 128.194 29.5498C128.282 29.5143 128.376 29.4967 128.471 29.4981H131.287C131.382 29.4967 131.476 29.5143 131.564 29.5498C131.652 29.5853 131.732 29.638 131.799 29.7049C131.866 29.7717 131.919 29.8513 131.955 29.9389C131.991 30.0266 132.009 30.1205 132.008 30.2152V33.0354C132.009 33.1302 131.991 33.2241 131.955 33.3118C131.919 33.3994 131.866 33.479 131.799 33.5458C131.732 33.6126 131.652 33.6654 131.564 33.7009C131.476 33.7364 131.382 33.7539 131.287 33.7526V33.7526ZM128.471 29.5257C128.288 29.5257 128.112 29.5984 127.983 29.7277C127.854 29.857 127.781 30.0324 127.781 30.2152V33.0354C127.781 33.2183 127.854 33.3937 127.983 33.523C128.112 33.6523 128.288 33.725 128.471 33.725H131.287C131.47 33.725 131.646 33.6523 131.775 33.523C131.904 33.3937 131.977 33.2183 131.977 33.0354V30.2152C131.977 30.0324 131.904 29.857 131.775 29.7277C131.646 29.5984 131.47 29.5257 131.287 29.5257H128.471ZM131.287 33.2768H128.471C128.406 33.2768 128.345 33.2515 128.299 33.2063C128.253 33.1611 128.227 33.0998 128.226 33.0354V30.2152C128.227 30.1506 128.253 30.0889 128.298 30.0431C128.344 29.9974 128.406 29.9713 128.471 29.9705H131.287C131.352 29.9713 131.414 29.9974 131.459 30.0431C131.505 30.0889 131.531 30.1506 131.532 30.2152V33.0354C131.531 33.0998 131.505 33.1611 131.459 33.2063C131.413 33.2515 131.352 33.2768 131.287 33.2768V33.2768ZM128.471 30.0015C128.414 30.0024 128.36 30.0252 128.32 30.0651C128.281 30.105 128.258 30.1588 128.257 30.2152V33.0354C128.258 33.0919 128.281 33.1457 128.32 33.1856C128.36 33.2255 128.414 33.2483 128.471 33.2492H131.287C131.344 33.2483 131.398 33.2255 131.438 33.1856C131.477 33.1457 131.5 33.0919 131.501 33.0354V30.2152C131.5 30.1588 131.477 30.105 131.438 30.0651C131.398 30.0252 131.344 30.0024 131.287 30.0015H128.471Z" fill="white"/>
<path d="M137.051 29.5124C137.143 29.5101 137.235 29.5263 137.321 29.5599C137.406 29.5935 137.484 29.6439 137.55 29.7082C137.616 29.7724 137.668 29.8492 137.704 29.934C137.74 30.0188 137.758 30.1099 137.758 30.202V33.7255H137.282V32.1809H134.007V33.7255H133.531V30.2158C133.531 30.0329 133.604 29.8575 133.733 29.7282C133.863 29.5989 134.038 29.5262 134.221 29.5262L137.051 29.5124ZM137.282 31.7189V30.2158C137.281 30.1554 137.256 30.098 137.213 30.0556C137.169 30.0132 137.112 29.9891 137.051 29.9882H134.235C134.175 29.9891 134.117 30.0134 134.075 30.0558C134.032 30.0983 134.008 30.1557 134.007 30.2158V31.7189H137.282Z" fill="white"/>
<path d="M137.773 33.7526H137.266V32.2115H134.021V33.7526H133.515V30.2152C133.514 30.1205 133.532 30.0266 133.568 29.9389C133.604 29.8513 133.657 29.7717 133.724 29.7049C133.791 29.638 133.871 29.5853 133.959 29.5498C134.046 29.5143 134.141 29.4967 134.235 29.4981H137.052C137.147 29.4967 137.241 29.5143 137.329 29.5498C137.416 29.5853 137.496 29.638 137.563 29.7049C137.631 29.7717 137.684 29.8513 137.72 29.9389C137.755 30.0266 137.774 30.1205 137.773 30.2152V33.7526ZM137.297 33.7215H137.742V30.2152C137.742 30.0324 137.669 29.857 137.54 29.7277C137.41 29.5984 137.235 29.5257 137.052 29.5257H134.235C134.052 29.5257 133.877 29.5984 133.748 29.7277C133.618 29.857 133.546 30.0324 133.546 30.2152V33.725H133.99V32.1839H137.297V33.7215ZM137.297 31.7357H133.99V30.2152C133.992 30.1509 134.019 30.0896 134.064 30.0441C134.11 29.9985 134.171 29.9722 134.235 29.9705H137.052C137.117 29.9713 137.178 29.9974 137.224 30.0431C137.27 30.0889 137.296 30.1506 137.297 30.2152V31.7357ZM134.021 31.7046H137.266V30.2152C137.265 30.1588 137.242 30.105 137.202 30.0651C137.162 30.0252 137.108 30.0024 137.052 30.0015H134.235C134.179 30.0032 134.126 30.0263 134.086 30.066C134.046 30.1057 134.023 30.1591 134.021 30.2152V31.7046Z" fill="white"/>
<path d="M143.53 31.4603C143.53 31.5523 143.511 31.6434 143.476 31.7282C143.44 31.813 143.387 31.8898 143.322 31.9541C143.256 32.0183 143.178 32.0688 143.092 32.1024C143.006 32.136 142.915 32.1521 142.823 32.1498H142.178L143.505 33.7254H142.878L141.558 32.1533H140.006C139.947 32.1533 139.865 32.1533 139.779 32.1292V33.7254H139.303V29.5193H142.823C142.915 29.517 143.006 29.5331 143.092 29.5667C143.178 29.6003 143.256 29.6508 143.322 29.715C143.387 29.7793 143.44 29.8561 143.476 29.9409C143.511 30.0257 143.53 30.1168 143.53 30.2088V31.4603ZM142.823 31.6844C142.882 31.6844 142.939 31.6608 142.981 31.6188C143.023 31.5767 143.047 31.5197 143.047 31.4603V30.2226C143.047 30.1628 143.023 30.1055 142.982 30.0629C142.94 30.0203 142.883 29.9959 142.823 29.995H140.006C139.946 29.9959 139.889 30.0202 139.846 30.0627C139.804 30.1052 139.779 30.1625 139.779 30.2226V31.4603C139.779 31.52 139.804 31.577 139.846 31.619C139.889 31.6609 139.946 31.6844 140.006 31.6844H142.823Z" fill="white"/>
<path d="M143.541 33.7529H142.852L141.538 32.1842H139.993C139.925 32.1811 139.857 32.1742 139.79 32.1636V33.7564H139.283V29.502H142.821C143.012 29.502 143.195 29.5779 143.33 29.713C143.465 29.8481 143.541 30.0314 143.541 30.2225V31.4602C143.541 31.6513 143.465 31.8346 143.33 31.9698C143.195 32.1049 143.012 32.1808 142.821 32.1808H142.21L143.541 33.7529ZM142.886 33.7219H143.472L142.148 32.1498H142.838C143.021 32.1498 143.196 32.0771 143.325 31.9478C143.455 31.8185 143.527 31.6431 143.527 31.4602V30.2225C143.527 30.0396 143.455 29.8643 143.325 29.7349C143.196 29.6056 143.021 29.533 142.838 29.533H139.318V33.7254H139.762V32.1291H139.807C139.873 32.1399 139.94 32.1468 140.007 32.1498H141.566L142.886 33.7219ZM142.824 31.6981H140.007C139.943 31.6982 139.882 31.6733 139.837 31.6289C139.791 31.5845 139.764 31.524 139.762 31.4602V30.2225C139.764 30.1581 139.791 30.0969 139.836 30.0514C139.882 30.0058 139.943 29.9795 140.007 29.9777H142.824C142.888 29.9795 142.949 30.006 142.994 30.0516C143.039 30.0972 143.064 30.1585 143.065 30.2225V31.4602C143.065 31.4918 143.059 31.523 143.047 31.5521C143.035 31.5812 143.017 31.6075 142.994 31.6297C142.972 31.6518 142.945 31.6693 142.916 31.681C142.887 31.6928 142.856 31.6986 142.824 31.6981ZM140.007 30.0088C139.951 30.0105 139.898 30.0336 139.858 30.0733C139.818 30.113 139.795 30.1664 139.793 30.2225V31.4602C139.795 31.5157 139.819 31.5683 139.858 31.6069C139.898 31.6456 139.952 31.6671 140.007 31.6671H142.824C142.851 31.6676 142.879 31.6625 142.904 31.6524C142.93 31.6422 142.953 31.627 142.972 31.6077C142.992 31.5885 143.008 31.5655 143.018 31.5402C143.029 31.5149 143.034 31.4877 143.034 31.4602V30.2225C143.034 30.1664 143.012 30.1126 142.973 30.0726C142.934 30.0326 142.88 30.0097 142.824 30.0088H140.007Z" fill="white"/>
<path d="M148.574 29.5122C148.757 29.5122 148.933 29.5849 149.062 29.7142C149.191 29.8435 149.264 30.0189 149.264 30.2017V33.0357C149.264 33.2186 149.191 33.394 149.062 33.5233C148.933 33.6526 148.757 33.7253 148.574 33.7253H145.044V29.5122H148.574ZM148.802 30.2017C148.801 30.1417 148.777 30.0843 148.734 30.0418C148.692 29.9993 148.634 29.9751 148.574 29.9742H145.758C145.697 29.9751 145.639 29.9992 145.596 30.0416C145.553 30.084 145.528 30.1414 145.527 30.2017V33.0357C145.528 33.0961 145.553 33.1535 145.596 33.1959C145.639 33.2383 145.697 33.2624 145.758 33.2633H148.574C148.634 33.2624 148.692 33.2381 148.734 33.1957C148.777 33.1532 148.801 33.0958 148.802 33.0357V30.2017Z" fill="white"/>
<path d="M148.574 33.7526H145.03V29.4981H148.574C148.669 29.4967 148.763 29.5143 148.851 29.5498C148.939 29.5853 149.019 29.638 149.086 29.7049C149.153 29.7717 149.206 29.8513 149.242 29.9389C149.278 30.0266 149.296 30.1205 149.295 30.2152V33.0354C149.296 33.1302 149.278 33.2241 149.242 33.3118C149.206 33.3994 149.153 33.479 149.086 33.5458C149.019 33.6126 148.939 33.6654 148.851 33.7009C148.763 33.7364 148.669 33.7539 148.574 33.7526V33.7526ZM145.061 33.725H148.574C148.757 33.725 148.933 33.6523 149.062 33.523C149.191 33.3937 149.264 33.2183 149.264 33.0354V30.2152C149.264 30.0324 149.191 29.857 149.062 29.7277C148.933 29.5984 148.757 29.5257 148.574 29.5257H145.061V33.725ZM148.574 33.2768H145.758C145.693 33.2768 145.632 33.2515 145.586 33.2063C145.54 33.1611 145.514 33.0998 145.513 33.0354V30.2152C145.514 30.1506 145.54 30.0889 145.586 30.0431C145.631 29.9974 145.693 29.9713 145.758 29.9705H148.574C148.639 29.9722 148.7 29.9985 148.746 30.0441C148.791 30.0896 148.818 30.1509 148.819 30.2152V33.0354C148.817 33.0995 148.791 33.1604 148.745 33.2053C148.7 33.2503 148.639 33.2759 148.574 33.2768ZM145.758 30.0015C145.701 30.0024 145.647 30.0252 145.608 30.0651C145.568 30.105 145.545 30.1588 145.544 30.2152V33.0354C145.545 33.0919 145.568 33.1457 145.608 33.1856C145.647 33.2255 145.701 33.2483 145.758 33.2492H148.574C148.631 33.2483 148.685 33.2255 148.725 33.1856C148.765 33.1457 148.787 33.0919 148.788 33.0354V30.2152C148.787 30.1588 148.765 30.105 148.725 30.0651C148.685 30.0252 148.631 30.0024 148.574 30.0015H145.758Z" fill="white"/>
</svg>
